HIERARCHY
ROOT root
{
	OFFSET	0	13.1	24.9
	CHANNELS 6  Xposition Yposition Zposition Xrotation Yrotation Zrotation
	JOINT spine_1
	{
		OFFSET	0	9.99999	0
		CHANNELS 3  Xrotation Yrotation Zrotation
		JOINT spine_2
		{
			OFFSET	0	112	-10
			CHANNELS 3  Xrotation Yrotation Zrotation
			JOINT spine_3
			{
				OFFSET	0	206.5	19.3
				CHANNELS 3  Xrotation Yrotation Zrotation
				JOINT spine_4
				{
					OFFSET	0	110.4	14.6
					CHANNELS 3  Xrotation Yrotation Zrotation
					JOINT neck_1
					{
						OFFSET	0	71.8	-50.3
						CHANNELS 3  Xrotation Yrotation Zrotation
						JOINT neck_2
						{
							OFFSET	0	86.2	-25.8
							CHANNELS 3  Xrotation Yrotation Zrotation
							JOINT head_ee
							{
								OFFSET	0	179.8	-8.7
								CHANNELS 3  Xrotation Yrotation Zrotation
								End Site
								{
									OFFSET	1	0	0
								}
							}
						}
					}
					JOINT left_clavicle
					{
						OFFSET	-43.2	22.4	-70.8
						CHANNELS 3  Xrotation Yrotation Zrotation
						JOINT left_shoulder
						{
							OFFSET	-93.9	-5.79999	48.7
							CHANNELS 3  Xrotation Yrotation Zrotation
							JOINT left_elbow
							{
								OFFSET	-291.4	-30.8	15.2
								CHANNELS 3  Xrotation Yrotation Zrotation
								JOINT left_lowarm_twist
								{
									OFFSET	-110.7	-3.89999	13.6
									CHANNELS 3  Xrotation Yrotation Zrotation
									JOINT left_hand
									{
										OFFSET	-110.7	-3.89999	13.6
										CHANNELS 3  Xrotation Yrotation Zrotation
										JOINT left_ee
										{
											OFFSET	-80.8	-5.10001	12.1
											CHANNELS 3  Xrotation Yrotation Zrotation
											End Site
											{
												OFFSET	1	0	0
											}
										}
									}
								}
							}
						}
					}
					JOINT right_clavicle
					{
						OFFSET	43.2	22.4	-70.8
						CHANNELS 3  Xrotation Yrotation Zrotation
						JOINT right_shoulder
						{
							OFFSET	93.9	-5.79999	48.7
							CHANNELS 3  Xrotation Yrotation Zrotation
							JOINT right_elbow
							{
								OFFSET	291.4	-30.8	15.2
								CHANNELS 3  Xrotation Yrotation Zrotation
								JOINT right_lowarm_twist
								{
									OFFSET	110.7	-3.89999	13.6
									CHANNELS 3  Xrotation Yrotation Zrotation
									JOINT right_hand
									{
										OFFSET	110.7	-3.89999	13.6
										CHANNELS 3  Xrotation Yrotation Zrotation
										JOINT right_ee
										{
											OFFSET	80.8	-5.10001	12.1
											CHANNELS 3  Xrotation Yrotation Zrotation
											End Site
											{
												OFFSET	1	0	0
											}
										}
									}
								}
							}
						}
					}
				}
			}
		}
	}
	JOINT left_hip
	{
		OFFSET	-82.8	-127.5	0.300001
		CHANNELS 3  Xrotation Yrotation Zrotation
		JOINT left_knee
		{
			OFFSET	-28.2	-396.7	2.2
			CHANNELS 3  Xrotation Yrotation Zrotation
			JOINT left_ankle
			{
				OFFSET	-11.7	-411.3	35.4
				CHANNELS 3  Xrotation Yrotation Zrotation
				JOINT left_toes
				{
					OFFSET	0	-60	-88.6
					CHANNELS 3  Xrotation Yrotation Zrotation
					JOINT left_foot_ee
					{
						OFFSET	-22.5	-16.5	-42.2
						CHANNELS 3  Xrotation Yrotation Zrotation
						End Site
						{
							OFFSET	1	0	0
						}
					}
				}
			}
		}
	}
	JOINT right_hip
	{
		OFFSET	82.8	-127.5	0.300001
		CHANNELS 3  Xrotation Yrotation Zrotation
		JOINT right_knee
		{
			OFFSET	28.2	-396.7	2.2
			CHANNELS 3  Xrotation Yrotation Zrotation
			JOINT right_ankle
			{
				OFFSET	11.7	-411.3	35.4
				CHANNELS 3  Xrotation Yrotation Zrotation
				JOINT right_toes
				{
					OFFSET	0	-60	-88.6
					CHANNELS 3  Xrotation Yrotation Zrotation
					JOINT right_foot_ee
					{
						OFFSET	22.5	-16.5	-42.2
						CHANNELS 3  Xrotation Yrotation Zrotation
						End Site
						{
							OFFSET	1	0	0
						}
					}
				}
			}
		}
	}
}
MOTION
Frames: 14
Frame Time: 0.02
3574.42 741.953 -1474.73 31.5327917803 80.3213663475 -39.689902919 -2.82392 0.664573 5.15338 -2.80921 0.335754 5.18511 -2.76052 -1.0104 5.09702 -2.7967 -0.193877 5.19234 0.74666 17.2008 -3.27182 1.85134 33.2403 -2.18548 -0.0 0.0 -0.0 -0.163254 13.3742 1.30934 -11.6064 -22.3706 46.0656 1.30155 -32.8104 0.38321 -5.98701 -0.249022 0.723343 -1.00354 12.0276 -1.39224 -0.0 0.0 -0.0 12.902 26.5023 -25.391 -13.3062 41.0645 -59.4327 0.805861 21.7618 -0.154908 -61.8877 5.51841 -5.15606 -2.79651 -12.7348 12.4731 0.0 0.0 0.0 -11.5959 48.0246 0.200506 -7.32548 0.231569 1.09963 3.29965 -8.02181 -0.498846 2.03126 -0.0 -0.0 -0.0 0.0 -0.0 -3.9269 26.3879 1.23879 -13.3464 -0.315561 -2.01925 17.6669 8.98538 2.53923 -5.963 0.0 0.0 0.0 0.0 0.0 
3567.70581808 741.602 -1472.77737071 31.1330507987 79.9309760334 -38.829774952 -2.82235 0.665781 5.16911 -2.80755 0.335963 5.20089 -2.75864 -1.01411 5.11235 -2.79504 -0.195128 5.20805 -0.0845238 17.3151 -2.92985 0.900087 33.3174 -1.55365 -0.0 0.0 -0.0 -0.124564 14.1308 1.46266 -10.2075 -22.2582 45.5307 1.37156 -34.1916 0.421855 -6.73322 -0.285328 0.811588 -1.21128 11.8655 -2.77938 -0.0 0.0 -0.0 12.755 26.489 -25.0542 -13.7584 41.0032 -59.5392 0.792147 21.4253 -0.149861 -61.8645 5.5155 -5.15543 -2.74846 -12.2626 12.4115 0.0 0.0 0.0 -11.9126 48.0827 0.524382 -6.82603 0.220268 1.02382 3.491 -8.33564 -0.528326 2.42209 -0.0 -0.0 -0.0 0.0 -0.0 -3.87215 26.402 1.04336 -14.448 -0.320449 -2.1882 17.6635 8.71635 2.53535 -5.67185 0.0 0.0 0.0 0.0 0.0 
3567.65832503 741.602 -1472.94877806 27.3651738341 78.6586164533 -34.9954456529 -2.82235 0.665781 5.16911 -2.80755 0.335963 5.20089 -2.75864 -1.01411 5.11235 -2.79504 -0.195128 5.20805 -0.0845238 17.3151 -2.92985 0.900087 33.3174 -1.55365 -0.0 0.0 -0.0 -0.124564 14.1308 1.46266 -10.2075 -22.2582 45.5307 1.37156 -34.1916 0.421855 -6.73322 -0.285328 0.811588 -1.21128 11.8655 -2.77938 -0.0 0.0 -0.0 12.755 26.489 -25.0542 -13.7584 41.0032 -59.5392 0.792147 21.4253 -0.149861 -61.8645 5.5155 -5.15543 -2.74846 -12.2626 12.4115 0.0 0.0 0.0 -11.9126 48.0827 0.524382 -6.82603 0.220268 1.02382 3.491 -8.33564 -0.528326 2.42209 -0.0 -0.0 -0.0 0.0 -0.0 -3.87215 26.402 1.04336 -14.448 -0.320449 -2.1882 17.6635 8.71635 2.53535 -5.67185 0.0 0.0 0.0 0.0 0.0 
3567.61106376 741.602 -1473.1389666 24.1024070742 77.2114146872 -31.6592873473 -2.82235 0.665781 5.16911 -2.80755 0.335963 5.20089 -2.75864 -1.01411 5.11235 -2.79504 -0.195128 5.20805 -0.0845238 17.3151 -2.92985 0.900087 33.3174 -1.55365 -0.0 0.0 -0.0 -0.124564 14.1308 1.46266 -10.2075 -22.2582 45.5307 1.37156 -34.1916 0.421855 -6.73322 -0.285328 0.811588 -1.21128 11.8655 -2.77938 -0.0 0.0 -0.0 12.755 26.489 -25.0542 -13.7584 41.0032 -59.5392 0.792147 21.4253 -0.149861 -61.8645 5.5155 -5.15543 -2.74846 -12.2626 12.4115 0.0 0.0 0.0 -11.9126 48.0827 0.524382 -6.82603 0.220268 1.02382 3.491 -8.33564 -0.528326 2.42209 -0.0 -0.0 -0.0 0.0 -0.0 -3.87215 26.402 1.04336 -14.448 -0.320449 -2.1882 17.6635 8.71635 2.53535 -5.67185 0.0 0.0 0.0 0.0 0.0 
3567.56931928 741.602 -1473.32958092 21.5247324346 75.7371388196 -29.0083267615 -2.82235 0.665781 5.16911 -2.80755 0.335963 5.20089 -2.75864 -1.01411 5.11235 -2.79504 -0.195128 5.20805 -0.0845238 17.3151 -2.92985 0.900087 33.3174 -1.55365 -0.0 0.0 -0.0 -0.124564 14.1308 1.46266 -10.2075 -22.2582 45.5307 1.37156 -34.1916 0.421855 -6.73322 -0.285328 0.811588 -1.21128 11.8655 -2.77938 -0.0 0.0 -0.0 12.755 26.489 -25.0542 -13.7584 41.0032 -59.5392 0.792147 21.4253 -0.149861 -61.8645 5.5155 -5.15543 -2.74846 -12.2626 12.4115 0.0 0.0 0.0 -11.9126 48.0827 0.524382 -6.82603 0.220268 1.02382 3.491 -8.33564 -0.528326 2.42209 -0.0 -0.0 -0.0 0.0 -0.0 -3.87215 26.402 1.04336 -14.448 -0.320449 -2.1882 17.6635 8.71635 2.53535 -5.67185 0.0 0.0 0.0 0.0 0.0 
3567.52315424 741.602 -1473.57825411 18.8953689405 73.7916324726 -26.2836116346 -2.82235 0.665781 5.16911 -2.80755 0.335963 5.20089 -2.75864 -1.01411 5.11235 -2.79504 -0.195128 5.20805 -0.0845238 17.3151 -2.92985 0.900087 33.3174 -1.55365 -0.0 0.0 -0.0 -0.124564 14.1308 1.46266 -10.2075 -22.2582 45.5307 1.37156 -34.1916 0.421855 -6.73322 -0.285328 0.811588 -1.21128 11.8655 -2.77938 -0.0 0.0 -0.0 12.755 26.489 -25.0542 -13.7584 41.0032 -59.5392 0.792147 21.4253 -0.149861 -61.8645 5.5155 -5.15543 -2.74846 -12.2626 12.4115 0.0 0.0 0.0 -11.9126 48.0827 0.524382 -6.82603 0.220268 1.02382 3.491 -8.33564 -0.528326 2.42209 -0.0 -0.0 -0.0 0.0 -0.0 -3.87215 26.402 1.04336 -14.448 -0.320449 -2.1882 17.6635 8.71635 2.53535 -5.67185 0.0 0.0 0.0 0.0 0.0 
3567.48594514 741.602 -1473.82895435 16.8363024869 71.8145746114 -24.1285284496 -2.82235 0.665781 5.16911 -2.80755 0.335963 5.20089 -2.75864 -1.01411 5.11235 -2.79504 -0.195128 5.20805 -0.0845238 17.3151 -2.92985 0.900087 33.3174 -1.55365 -0.0 0.0 -0.0 -0.124564 14.1308 1.46266 -10.2075 -22.2582 45.5307 1.37156 -34.1916 0.421855 -6.73322 -0.285328 0.811588 -1.21128 11.8655 -2.77938 -0.0 0.0 -0.0 12.755 26.489 -25.0542 -13.7584 41.0032 -59.5392 0.792147 21.4253 -0.149861 -61.8645 5.5155 -5.15543 -2.74846 -12.2626 12.4115 0.0 0.0 0.0 -11.9126 48.0827 0.524382 -6.82603 0.220268 1.02382 3.491 -8.33564 -0.528326 2.42209 -0.0 -0.0 -0.0 0.0 -0.0 -3.87215 26.402 1.04336 -14.448 -0.320449 -2.1882 17.6635 8.71635 2.53535 -5.67185 0.0 0.0 0.0 0.0 0.0 
3567.45174889 741.602 -1474.14993412 14.7952060911 69.2690309208 -21.9643552313 -2.82235 0.665781 5.16911 -2.80755 0.335963 5.20089 -2.75864 -1.01411 5.11235 -2.79504 -0.195128 5.20805 -0.0845238 17.3151 -2.92985 0.900087 33.3174 -1.55365 -0.0 0.0 -0.0 -0.124564 14.1308 1.46266 -10.2075 -22.2582 45.5307 1.37156 -34.1916 0.421855 -6.73322 -0.285328 0.811588 -1.21128 11.8655 -2.77938 -0.0 0.0 -0.0 12.755 26.489 -25.0542 -13.7584 41.0032 -59.5392 0.792147 21.4253 -0.149861 -61.8645 5.5155 -5.15543 -2.74846 -12.2626 12.4115 0.0 0.0 0.0 -11.9126 48.0827 0.524382 -6.82603 0.220268 1.02382 3.491 -8.33564 -0.528326 2.42209 -0.0 -0.0 -0.0 0.0 -0.0 -3.87215 26.402 1.04336 -14.448 -0.320449 -2.1882 17.6635 8.71635 2.53535 -5.67185 0.0 0.0 0.0 0.0 0.0 
3567.43266557 741.602 -1474.46512736 13.2423613186 66.7581829098 -20.2901374607 -2.82235 0.665781 5.16911 -2.80755 0.335963 5.20089 -2.75864 -1.01411 5.11235 -2.79504 -0.195128 5.20805 -0.0845238 17.3151 -2.92985 0.900087 33.3174 -1.55365 -0.0 0.0 -0.0 -0.124564 14.1308 1.46266 -10.2075 -22.2582 45.5307 1.37156 -34.1916 0.421855 -6.73322 -0.285328 0.811588 -1.21128 11.8655 -2.77938 -0.0 0.0 -0.0 12.755 26.489 -25.0542 -13.7584 41.0032 -59.5392 0.792147 21.4253 -0.149861 -61.8645 5.5155 -5.15543 -2.74846 -12.2626 12.4115 0.0 0.0 0.0 -11.9126 48.0827 0.524382 -6.82603 0.220268 1.02382 3.491 -8.33564 -0.528326 2.42209 -0.0 -0.0 -0.0 0.0 -0.0 -3.87215 26.402 1.04336 -14.448 -0.320449 -2.1882 17.6635 8.71635 2.53535 -5.67185 0.0 0.0 0.0 0.0 0.0 
3567.4308031 741.602 -1474.94006363 11.4671667154 62.9553668733 -18.3302490135 -2.82235 0.665781 5.16911 -2.80755 0.335963 5.20089 -2.75864 -1.01411 5.11235 -2.79504 -0.195128 5.20805 -0.0845238 17.3151 -2.92985 0.900087 33.3174 -1.55365 -0.0 0.0 -0.0 -0.124564 14.1308 1.46266 -10.2075 -22.2582 45.5307 1.37156 -34.1916 0.421855 -6.73322 -0.285328 0.811588 -1.21128 11.8655 -2.77938 -0.0 0.0 -0.0 12.755 26.489 -25.0542 -13.7584 41.0032 -59.5392 0.792147 21.4253 -0.149861 -61.8645 5.5155 -5.15543 -2.74846 -12.2626 12.4115 0.0 0.0 0.0 -11.9126 48.0827 0.524382 -6.82603 0.220268 1.02382 3.491 -8.33564 -0.528326 2.42209 -0.0 -0.0 -0.0 0.0 -0.0 -3.87215 26.402 1.04336 -14.448 -0.320449 -2.1882 17.6635 8.71635 2.53535 -5.67185 0.0 0.0 0.0 0.0 0.0 
3567.49567902 741.602 -1475.70302567 9.49742426654 56.7815569822 -16.0561408228 -2.82235 0.665781 5.16911 -2.80755 0.335963 5.20089 -2.75864 -1.01411 5.11235 -2.79504 -0.195128 5.20805 -0.0845238 17.3151 -2.92985 0.900087 33.3174 -1.55365 -0.0 0.0 -0.0 -0.124564 14.1308 1.46266 -10.2075 -22.2582 45.5307 1.37156 -34.1916 0.421855 -6.73322 -0.285328 0.811588 -1.21128 11.8655 -2.77938 -0.0 0.0 -0.0 12.755 26.489 -25.0542 -13.7584 41.0032 -59.5392 0.792147 21.4253 -0.149861 -61.8645 5.5155 -5.15543 -2.74846 -12.2626 12.4115 0.0 0.0 0.0 -11.9126 48.0827 0.524382 -6.82603 0.220268 1.02382 3.491 -8.33564 -0.528326 2.42209 -0.0 -0.0 -0.0 0.0 -0.0 -3.87215 26.402 1.04336 -14.448 -0.320449 -2.1882 17.6635 8.71635 2.53535 -5.67185 0.0 0.0 0.0 0.0 0.0 
3567.60307773 741.602 -1476.28646096 8.43881156089 51.9782372309 -14.7550311278 -2.82235 0.665781 5.16911 -2.80755 0.335963 5.20089 -2.75864 -1.01411 5.11235 -2.79504 -0.195128 5.20805 -0.0845238 17.3151 -2.92985 0.900087 33.3174 -1.55365 -0.0 0.0 -0.0 -0.124564 14.1308 1.46266 -10.2075 -22.2582 45.5307 1.37156 -34.1916 0.421855 -6.73322 -0.285328 0.811588 -1.21128 11.8655 -2.77938 -0.0 0.0 -0.0 12.755 26.489 -25.0542 -13.7584 41.0032 -59.5392 0.792147 21.4253 -0.149861 -61.8645 5.5155 -5.15543 -2.74846 -12.2626 12.4115 0.0 0.0 0.0 -11.9126 48.0827 0.524382 -6.82603 0.220268 1.02382 3.491 -8.33564 -0.528326 2.42209 -0.0 -0.0 -0.0 0.0 -0.0 -3.87215 26.402 1.04336 -14.448 -0.320449 -2.1882 17.6635 8.71635 2.53535 -5.67185 0.0 0.0 0.0 0.0 0.0 
3567.73578115 741.602 -1476.78285614 7.73512405521 47.8087196994 -13.8356126101 -2.82235 0.665781 5.16911 -2.80755 0.335963 5.20089 -2.75864 -1.01411 5.11235 -2.79504 -0.195128 5.20805 -0.0845238 17.3151 -2.92985 0.900087 33.3174 -1.55365 -0.0 0.0 -0.0 -0.124564 14.1308 1.46266 -10.2075 -22.2582 45.5307 1.37156 -34.1916 0.421855 -6.73322 -0.285328 0.811588 -1.21128 11.8655 -2.77938 -0.0 0.0 -0.0 12.755 26.489 -25.0542 -13.7584 41.0032 -59.5392 0.792147 21.4253 -0.149861 -61.8645 5.5155 -5.15543 -2.74846 -12.2626 12.4115 0.0 0.0 0.0 -11.9126 48.0827 0.524382 -6.82603 0.220268 1.02382 3.491 -8.33564 -0.528326 2.42209 -0.0 -0.0 -0.0 0.0 -0.0 -3.87215 26.402 1.04336 -14.448 -0.320449 -2.1882 17.6635 8.71635 2.53535 -5.67185 0.0 0.0 0.0 0.0 0.0 
3567.85630521 741.602 -1477.14058306 7.31154370237 44.7418080812 -13.2496915206 -2.82235 0.665781 5.16911 -2.80755 0.335963 5.20089 -2.75864 -1.01411 5.11235 -2.79504 -0.195128 5.20805 -0.0845238 17.3151 -2.92985 0.900087 33.3174 -1.55365 -0.0 0.0 -0.0 -0.124564 14.1308 1.46266 -10.2075 -22.2582 45.5307 1.37156 -34.1916 0.421855 -6.73322 -0.285328 0.811588 -1.21128 11.8655 -2.77938 -0.0 0.0 -0.0 12.755 26.489 -25.0542 -13.7584 41.0032 -59.5392 0.792147 21.4253 -0.149861 -61.8645 5.5155 -5.15543 -2.74846 -12.2626 12.4115 0.0 0.0 0.0 -11.9126 48.0827 0.524382 -6.82603 0.220268 1.02382 3.491 -8.33564 -0.528326 2.42209 -0.0 -0.0 -0.0 0.0 -0.0 -3.87215 26.402 1.04336 -14.448 -0.320449 -2.1882 17.6635 8.71635 2.53535 -5.67185 0.0 0.0 0.0 0.0 0.0 
